<?xml version="1.0" encoding="UTF-8"?>
<svg width="300" height="500" viewBox="0 0 300 500" xmlns="http://www.w3.org/2000/svg">
  <!-- Определения градиентов и фильтров -->
  <defs>
    <!-- Градиент для ауры -->
    <radialGradient id="auraGradient" cx="50%" cy="50%" r="50%" fx="50%" fy="50%">
      <stop offset="0%" stop-color="#7C4DFF" stop-opacity="0.7"/>
      <stop offset="100%" stop-color="#7C4DFF" stop-opacity="0"/>
    </radialGradient>
    
    <!-- Градиент для кожи -->
    <linearGradient id="skinGradient" x1="0%" y1="0%" x2="100%" y2="100%">
      <stop offset="0%" stop-color="#FFDBAC"/>
      <stop offset="100%" stop-color="#F1C27D"/>
    </linearGradient>
    
    <!-- Градиент для волос -->
    <linearGradient id="hairGradient" x1="0%" y1="0%" x2="100%" y2="100%">
      <stop offset="0%" stop-color="#4E342E"/>
      <stop offset="100%" stop-color="#3E2723"/>
    </linearGradient>
    
    <!-- Градиент для одежды -->
    <linearGradient id="clothesGradient" x1="0%" y1="0%" x2="100%" y2="100%">
      <stop offset="0%" stop-color="#4A90E2"/>
      <stop offset="100%" stop-color="#3F51B5"/>
    </linearGradient>
    
    <!-- Фильтр для тени -->
    <filter id="shadow" x="-20%" y="-20%" width="140%" height="140%">
      <feGaussianBlur in="SourceAlpha" stdDeviation="3"/>
      <feOffset dx="0" dy="4" result="offsetblur"/>
      <feComponentTransfer>
        <feFuncA type="linear" slope="0.3"/>
      </feComponentTransfer>
      <feMerge>
        <feMergeNode/>
        <feMergeNode in="SourceGraphic"/>
      </feMerge>
    </filter>
    
    <!-- Фильтр для свечения -->
    <filter id="glow" x="-20%" y="-20%" width="140%" height="140%">
      <feGaussianBlur in="SourceAlpha" stdDeviation="5"/>
      <feOffset dx="0" dy="0" result="offsetblur"/>
      <feComponentTransfer>
        <feFuncA type="linear" slope="0.5"/>
      </feComponentTransfer>
      <feMerge>
        <feMergeNode/>
        <feMergeNode in="SourceGraphic"/>
      </feMerge>
    </filter>
  </defs>
  
  <!-- Аура вокруг аватара -->
  <circle class="aura" cx="150" cy="250" r="140" fill="url(#auraGradient)">
    <animate attributeName="r" values="140;150;140" dur="4s" repeatCount="indefinite"/>
    <animate attributeName="opacity" values="0.5;0.7;0.5" dur="4s" repeatCount="indefinite"/>
  </circle>
  
  <!-- Частицы вокруг аватара -->
  <g id="particles" opacity="0.7">
    <!-- Частица 1 -->
    <circle cx="100" cy="150" r="3" fill="#7C4DFF">
      <animate attributeName="cy" values="150;140;150" dur="2s" repeatCount="indefinite"/>
      <animate attributeName="opacity" values="0.7;1;0.7" dur="2s" repeatCount="indefinite"/>
    </circle>
    
    <!-- Частица 2 -->
    <circle cx="200" cy="150" r="2" fill="#7C4DFF">
      <animate attributeName="cy" values="150;160;150" dur="3s" repeatCount="indefinite"/>
      <animate attributeName="opacity" values="0.7;1;0.7" dur="3s" repeatCount="indefinite"/>
    </circle>
    
    <!-- Частица 3 -->
    <circle cx="120" cy="350" r="2.5" fill="#7C4DFF">
      <animate attributeName="cy" values="350;340;350" dur="2.5s" repeatCount="indefinite"/>
      <animate attributeName="opacity" values="0.7;1;0.7" dur="2.5s" repeatCount="indefinite"/>
    </circle>
    
    <!-- Частица 4 -->
    <circle cx="180" cy="350" r="2" fill="#7C4DFF">
      <animate attributeName="cy" values="350;360;350" dur="3.5s" repeatCount="indefinite"/>
      <animate attributeName="opacity" values="0.7;1;0.7" dur="3.5s" repeatCount="indefinite"/>
    </circle>
    
    <!-- Частица 5 -->
    <circle cx="150" cy="180" r="3" fill="#7C4DFF">
      <animate attributeName="cy" values="180;170;180" dur="2.2s" repeatCount="indefinite"/>
      <animate attributeName="opacity" values="0.7;1;0.7" dur="2.2s" repeatCount="indefinite"/>
    </circle>
  </g>
  
  <!-- Тело аватара в стиле аниме -->
  <g id="anime-body" filter="url(#shadow)">
    <!-- Ноги -->
    <path d="M130,300 L130,450 C130,460 140,460 145,450 L145,300 Z" fill="#2C3E50"/>
    <path d="M155,300 L155,450 C155,460 165,460 170,450 L170,300 Z" fill="#2C3E50"/>
    
    <!-- Обувь -->
    <ellipse cx="137" cy="455" rx="15" ry="5" fill="#34495E"/>
    <ellipse cx="163" cy="455" rx="15" ry="5" fill="#34495E"/>
    
    <!-- Туловище (в стиле школьной формы) -->
    <path d="M120,200 C120,190 180,190 180,200 L180,300 C180,310 120,310 120,300 Z" fill="url(#clothesGradient)"/>
    
    <!-- Воротник и галстук -->
    <path d="M135,200 L135,220 L150,240 L165,220 L165,200 Z" fill="#E74C3C"/>
    <path d="M135,200 L165,200 C165,190 135,190 135,200 Z" fill="white"/>
    
    <!-- Руки -->
    <path d="M120,210 C100,220 90,260 100,280" stroke="#F1C27D" stroke-width="10" fill="none" stroke-linecap="round"/>
    <path d="M180,210 C200,220 210,260 200,280" stroke="#F1C27D" stroke-width="10" fill="none" stroke-linecap="round"/>
    
    <!-- Кисти рук -->
    <circle cx="100" cy="280" r="8" fill="url(#skinGradient)"/>
    <circle cx="200" cy="280" r="8" fill="url(#skinGradient)"/>
    
    <!-- Шея -->
    <rect x="140" y="180" width="20" height="20" fill="url(#skinGradient)"/>
    
    <!-- Голова (в стиле аниме) -->
    <ellipse cx="150" cy="140" rx="40" ry="50" fill="url(#skinGradient)"/>
    
    <!-- Волосы (в стиле аниме) -->
    <path d="M150,90 C110,90 100,120 110,150 L110,160 C110,170 120,180 130,180 L170,180 C180,180 190,170 190,160 L190,150 C200,120 190,90 150,90 Z" fill="url(#hairGradient)"/>
    
    <!-- Челка -->
    <path d="M120,110 L130,140 L140,110 L150,140 L160,110 L170,140 L180,110 C180,100 120,100 120,110 Z" fill="url(#hairGradient)"/>
    
    <!-- Глаза (большие, в стиле аниме) -->
    <g id="eyes">
      <!-- Левый глаз -->
      <ellipse cx="130" cy="140" rx="10" ry="15" fill="white"/>
      <ellipse cx="130" cy="140" rx="5" ry="8" fill="#2C3E50">
        <animate attributeName="ry" values="8;2;8" dur="5s" repeatCount="indefinite"/>
      </ellipse>
      <ellipse cx="128" cy="136" rx="2" ry="2" fill="white"/>
      
      <!-- Правый глаз -->
      <ellipse cx="170" cy="140" rx="10" ry="15" fill="white"/>
      <ellipse cx="170" cy="140" rx="5" ry="8" fill="#2C3E50">
        <animate attributeName="ry" values="8;2;8" dur="5s" repeatCount="indefinite"/>
      </ellipse>
      <ellipse cx="168" cy="136" rx="2" ry="2" fill="white"/>
    </g>
    
    <!-- Рот -->
    <path class="mouth" d="M140,165 C145,170 155,170 160,165" fill="none" stroke="#E74C3C" stroke-width="2" stroke-linecap="round">
      <animate attributeName="d" values="M140,165 C145,170 155,170 160,165;M140,165 C145,168 155,168 160,165;M140,165 C145,170 155,170 160,165" dur="10s" repeatCount="indefinite"/>
    </path>
    
    <!-- Румянец на щеках -->
    <ellipse cx="115" cy="150" rx="10" ry="5" fill="#E74C3C" opacity="0.3"/>
    <ellipse cx="185" cy="150" rx="10" ry="5" fill="#E74C3C" opacity="0.3"/>
    
    <!-- Пояс (меняется в зависимости от уровня) -->
    <rect x="120" y="280" width="60" height="10" rx="5" fill="#4CAF50"/>
    
    <!-- Значок на груди (появляется при достижениях) -->
    <circle class="badge" cx="150" cy="230" r="10" fill="#FFC107"/>
    <text class="badge-text" x="150" y="234" font-family="Arial" font-size="12" text-anchor="middle" fill="#333" font-weight="bold">4</text>
  </g>
  
  <!-- Анимация волос -->
  <animate xlink:href="#anime-body" attributeName="transform" attributeType="XML" type="translate" values="0,0; 0,2; 0,0" dur="3s" repeatCount="indefinite" />

  <!-- Анимация моргания -->
  <animate xlink:href="#eyes" attributeName="transform" attributeType="XML" type="scale" values="1,1; 1,0.1; 1,1" dur="5s" begin="2s" repeatCount="indefinite" />
  
  <script type="text/javascript">
  // Здесь может быть JavaScript для управления аватаром
  // Например, изменение эмоций, анимации при достижениях и т.д.
  </script>
</svg> 