<?xml version="1.0" encoding="UTF-8" standalone="no"?>
<svg width="200" height="200" viewBox="0 0 200 200" xmlns="http://www.w3.org/2000/svg">
  <!-- Фон аватара с аурой -->
  <defs>
    <radialGradient id="auraGradient" cx="50%" cy="50%" r="50%" fx="50%" fy="50%">
      <stop offset="0%" stop-color="#7C4DFF" stop-opacity="0.7" />
      <stop offset="100%" stop-color="#7C4DFF" stop-opacity="0" />
    </radialGradient>
  </defs>
  
  <!-- Аура (интенсивность зависит от прогресса) -->
  <circle cx="100" cy="100" r="95" fill="url(#auraGradient)" class="aura">
    <animate attributeName="r" values="90;95;90" dur="3s" repeatCount="indefinite" />
    <animate attributeName="opacity" values="0.7;0.9;0.7" dur="3s" repeatCount="indefinite" />
  </circle>
  
  <!-- Тело аватара -->
  <g id="avatar-body">
    <!-- Голова -->
    <circle cx="100" cy="85" r="40" fill="#FFD3B6" stroke="#333" stroke-width="1.5" />
    
    <!-- Тело -->
    <path d="M70,120 C70,100 130,100 130,120 L130,170 C130,185 70,185 70,170 Z" fill="#6A7EFC" stroke="#333" stroke-width="1.5" />
    
    <!-- Глаза -->
    <g id="eyes">
      <!-- Левый глаз -->
      <ellipse cx="85" cy="80" rx="5" ry="7" fill="white" stroke="#333" stroke-width="1" />
      <circle cx="85" cy="80" r="3" fill="#333" class="pupil-left">
        <animate attributeName="cy" values="80;79;80;81;80" dur="5s" repeatCount="indefinite" />
      </circle>
      
      <!-- Правый глаз -->
      <ellipse cx="115" cy="80" rx="5" ry="7" fill="white" stroke="#333" stroke-width="1" />
      <circle cx="115" cy="80" r="3" fill="#333" class="pupil-right">
        <animate attributeName="cy" values="80;79;80;81;80" dur="5s" repeatCount="indefinite" />
      </circle>
    </g>
    
    <!-- Рот (меняется в зависимости от состояния) -->
    <path d="M90,95 C95,105 105,105 110,95" stroke="#333" stroke-width="2" fill="none" class="mouth happy" />
    
    <!-- Румянец на щеках -->
    <circle cx="75" cy="90" r="7" fill="#FFB3B3" opacity="0.5" />
    <circle cx="125" cy="90" r="7" fill="#FFB3B3" opacity="0.5" />
    
    <!-- Руки -->
    <path d="M70,130 C50,140 50,150 60,160" stroke="#333" stroke-width="3" fill="none" class="arm-left" />
    <path d="M130,130 C150,140 150,150 140,160" stroke="#333" stroke-width="3" fill="none" class="arm-right" />
    
    <!-- Ноги -->
    <path d="M85,170 L85,190" stroke="#333" stroke-width="4" fill="none" class="leg-left" />
    <path d="M115,170 L115,190" stroke="#333" stroke-width="4" fill="none" class="leg-right" />
  </g>
  
  <!-- Аксессуары (появляются с прогрессом) -->
  <g id="accessories">
    <!-- Шапка (разблокируется на уровне 5) -->
    <path d="M60,70 C60,40 140,40 140,70" stroke="#333" stroke-width="2" fill="#FF5252" class="hat" opacity="0.7" />
    
    <!-- Значок достижений (разблокируется на уровне 10) -->
    <circle cx="100" cy="130" r="8" fill="#FFD700" stroke="#333" stroke-width="1" class="badge" opacity="0.7">
      <animate attributeName="opacity" values="0.7;1;0.7" dur="2s" repeatCount="indefinite" />
    </circle>
    <text x="100" y="133" font-family="Arial" font-size="10" text-anchor="middle" fill="#333" class="badge-text">1</text>
  </g>
  
  <!-- Индикаторы состояния -->
  <g id="status-indicators">
    <!-- Индикатор энергии -->
    <rect x="160" y="50" width="10" height="100" rx="5" ry="5" fill="#EEEEEE" stroke="#333" stroke-width="1" />
    <rect x="160" y="100" width="10" height="50" rx="5" ry="5" fill="#4CAF50" class="energy-level">
      <animate attributeName="height" values="50;55;50;45;50" dur="10s" repeatCount="indefinite" />
      <animate attributeName="y" values="100;95;100;105;100" dur="10s" repeatCount="indefinite" />
    </rect>
    
    <!-- Индикатор настроения -->
    <rect x="30" y="50" width="10" height="100" rx="5" ry="5" fill="#EEEEEE" stroke="#333" stroke-width="1" />
    <rect x="30" y="70" width="10" height="80" rx="5" ry="5" fill="#2196F3" class="mood-level">
      <animate attributeName="height" values="80;85;80;75;80" dur="8s" repeatCount="indefinite" />
      <animate attributeName="y" values="70;65;70;75;70" dur="8s" repeatCount="indefinite" />
    </rect>
  </g>
  
  <!-- Уровень (текст) -->
  <text x="100" y="30" font-family="Arial" font-size="14" font-weight="bold" text-anchor="middle" fill="#333">Уровень 5</text>
  
  <!-- Имя аватара -->
  <text x="100" y="195" font-family="Arial" font-size="12" text-anchor="middle" fill="#333">ФитБадди</text>
  
  <!-- Скрипт для интерактивности (пример) -->
  <script type="text/ecmascript">
    <![CDATA[
      // Здесь может быть JavaScript для управления анимацией и состояниями аватара
      // Например, изменение настроения, энергии, аксессуаров в зависимости от прогресса
    ]]>
  </script>
</svg> 